<svg width="32" height="32" viewBox="0 0 32 32" fill="none" xmlns="http://www.w3.org/2000/svg">
<g clip-path="url(#clip0_3385_59606)">
<path d="M16.0003 2.66675C8.65366 2.66675 2.66699 8.65341 2.66699 16.0001C2.66699 23.3467 8.65366 29.3334 16.0003 29.3334C23.347 29.3334 29.3337 23.3467 29.3337 16.0001C29.3337 8.65341 23.347 2.66675 16.0003 2.66675ZM19.7203 16.7067L15.0137 21.4134C14.8137 21.6134 14.5603 21.7067 14.307 21.7067C14.0537 21.7067 13.8003 21.6134 13.6003 21.4134C13.2137 21.0267 13.2137 20.3867 13.6003 20.0001L17.6003 16.0001L13.6003 12.0001C13.2137 11.6134 13.2137 10.9734 13.6003 10.5867C13.987 10.2001 14.627 10.2001 15.0137 10.5867L19.7203 15.2934C20.1203 15.6801 20.1203 16.3201 19.7203 16.7067Z" fill="#9E9E9E"/>
</g>
<defs>
<clipPath id="clip0_3385_59606">
<rect width="32" height="32" rx="16" fill="white"/>
</clipPath>
</defs>
</svg>
