<svg width="40" height="34" viewBox="0 0 40 34" fill="none" xmlns="http://www.w3.org/2000/svg">
<path d="M34.4429 23.0991H5.55755C4.20644 23.0991 3.11133 22.004 3.11133 20.6529V5.55731C3.11133 4.2062 4.20644 3.11108 5.55755 3.11108H34.4424C35.7935 3.11108 36.8887 4.2062 36.8887 5.55731V20.6524C36.8891 22.004 35.794 23.0991 34.4429 23.0991Z" fill="#AECDFB"/>
<path d="M24.0195 15.1743H9.25548C9.01015 15.1743 8.81104 14.9752 8.81104 14.7298C8.81104 14.4845 9.01015 14.2854 9.25548 14.2854H24.0195C24.2653 14.2854 24.4639 14.4845 24.4639 14.7298C24.4639 14.9752 24.2653 15.1743 24.0195 15.1743Z" fill="#0C0C0C"/>
<path d="M23.008 11.0217H5.74132C5.49599 11.0217 5.29688 10.8226 5.29688 10.5773C5.29688 10.3319 5.49599 10.1328 5.74132 10.1328H23.008C23.2538 10.1328 23.4524 10.3319 23.4524 10.5773C23.4524 10.8226 23.2533 11.0217 23.008 11.0217Z" fill="#0C0C0C"/>
<path d="M11.272 26.2102H2.44178C1.09556 26.2102 0 25.1147 0 23.7684V2.44178C0 1.09556 1.09556 0 2.44178 0H37.5582C38.9044 0 40 1.09556 40 2.44178V4.15822C40 4.40355 39.8013 4.60266 39.5555 4.60266C39.3098 4.60266 39.1111 4.40355 39.1111 4.15822V2.44178C39.1111 1.58533 38.4146 0.888888 37.5582 0.888888H2.44178C1.58533 0.888888 0.888889 1.58533 0.888889 2.44178V23.768C0.888889 24.6244 1.58533 25.3209 2.44178 25.3209H11.272C11.5173 25.3209 11.7164 25.5195 11.7164 25.7653C11.7164 26.0111 11.5173 26.2102 11.272 26.2102Z" fill="#0C0C0C"/>
<path d="M20.3634 26.2102H16.4928C16.2475 26.2102 16.0483 26.0115 16.0483 25.7657C16.0483 25.52 16.2475 25.3213 16.4928 25.3213H20.3634C20.6092 25.3213 20.8079 25.52 20.8079 25.7657C20.8079 26.0115 20.6092 26.2102 20.3634 26.2102Z" fill="#0C0C0C"/>
<path d="M37.5581 26.2102H24.2342C23.9884 26.2102 23.7897 26.0115 23.7897 25.7657C23.7897 25.52 23.9884 25.3213 24.2342 25.3213H37.5581C38.4146 25.3213 39.111 24.6249 39.111 23.7684V21.9009H4.56749C4.32216 21.9009 4.12305 21.7022 4.12305 21.4564C4.12305 21.2106 4.32216 21.012 4.56749 21.012H39.5555C39.8013 21.012 39.9999 21.2106 39.9999 21.4564V23.7684C39.9999 25.1146 38.9044 26.2102 37.5581 26.2102Z" fill="#0C0C0C"/>
<path d="M29.1379 33.6338H11.59C11.3446 33.6338 11.1455 33.4351 11.1455 33.1893C11.1455 31.4134 12.5904 29.9685 14.3668 29.9685H14.6837L16.07 25.6302C16.1446 25.3969 16.3962 25.2662 16.6286 25.3427C16.8624 25.4174 16.9913 25.6671 16.9166 25.9014L15.4317 30.5485C15.3731 30.7325 15.2015 30.8574 15.0082 30.8574H14.3664C13.2322 30.8574 12.2846 31.6707 12.0766 32.7449H28.6504C28.4424 31.6707 27.4944 30.8574 26.3606 30.8574H25.7193C25.5259 30.8574 25.3548 30.7325 25.2962 30.5485L23.8113 25.9014C23.7362 25.6676 23.8655 25.4174 24.0988 25.3427C24.3339 25.2649 24.5828 25.3969 24.6575 25.6302L26.0437 29.9685H26.3606C28.1371 29.9685 29.5819 31.4134 29.5819 33.1893C29.5824 33.4351 29.3833 33.6338 29.1379 33.6338Z" fill="#0C0C0C"/>
<path d="M20.8144 23.7734H19.9122C19.6669 23.7734 19.4678 23.5747 19.4678 23.329C19.4678 23.0832 19.6669 22.8845 19.9122 22.8845H20.8144C21.0602 22.8845 21.2589 23.0832 21.2589 23.329C21.2589 23.5747 21.0602 23.7734 20.8144 23.7734Z" fill="#0C0C0C"/>
<path d="M35.6884 14.3731C35.6212 14.3731 35.5537 14.3571 35.4916 14.3246L32.706 12.86L29.92 14.3246C29.7781 14.3998 29.6053 14.3875 29.4752 14.2925C29.3451 14.1978 29.28 14.0377 29.307 13.8793L29.8389 10.7769L27.5856 8.58023C27.4707 8.46786 27.4289 8.30016 27.4787 8.14723C27.5286 7.99431 27.6608 7.88279 27.8196 7.85955L30.9343 7.40712L32.3275 4.5848C32.4694 4.29628 32.943 4.29628 33.0849 4.5848L34.4781 7.40712L37.5923 7.85955C37.7516 7.88279 37.8834 7.99431 37.9337 8.14723C37.9831 8.30016 37.9421 8.46786 37.8268 8.58023L35.5731 10.7769L36.1049 13.8793C36.132 14.0377 36.0669 14.1978 35.9372 14.2925C35.8629 14.3461 35.7759 14.3731 35.6884 14.3731ZM28.7883 8.57305L30.5879 10.3274C30.6872 10.4242 30.7328 10.5644 30.7091 10.7013L30.2841 13.1785L32.5091 12.0088C32.6329 11.9437 32.7791 11.9437 32.9028 12.0088L35.1274 13.1785L34.7029 10.7013C34.6792 10.5644 34.7248 10.4246 34.8241 10.3274L36.6241 8.57305L34.1368 8.21187C33.9991 8.19201 33.8804 8.10541 33.8187 7.98079L32.706 5.72623L31.5933 7.97995C31.5316 8.10457 31.4129 8.19117 31.2752 8.21102L28.7883 8.57305Z" fill="#0C0C0C"/>
</svg>
