<svg width="32" height="32" viewBox="0 0 32 32" fill="none" xmlns="http://www.w3.org/2000/svg">
<path d="M28.9272 10.6397C28.8648 9.2554 28.6411 8.30825 28.3239 7.48078C27.991 6.6273 27.5489 5.89872 26.826 5.18054C26.103 4.46237 25.3801 4.00961 24.5271 3.68175C23.7002 3.35909 22.7536 3.14051 21.3701 3.07806C19.9814 3.01561 19.5393 3 16.013 3C12.4815 3 12.0394 3.01561 10.656 3.07806C9.27248 3.14051 8.32589 3.36429 7.49892 3.68175C6.64075 4.01481 5.9126 4.45717 5.19486 5.18054C4.47712 5.90392 4.02463 6.6273 3.69696 7.48078C3.3797 8.30825 3.15605 9.2554 3.09364 10.6397C3.03123 12.0292 3.01562 12.4716 3.01562 16C3.01562 19.5336 3.03123 19.976 3.09364 21.3603C3.15605 22.7446 3.3797 23.6918 3.69696 24.5192C4.02983 25.3727 4.47192 26.1013 5.19486 26.8195C5.9126 27.5428 6.64075 27.9904 7.49372 28.3183C8.32069 28.6409 9.26728 28.8595 10.6508 28.9219C12.0394 28.9844 12.4815 29 16.0078 29C19.5393 29 19.9814 28.9844 21.3649 28.9219C22.7484 28.8595 23.695 28.6357 24.5219 28.3183C25.3749 27.9852 26.103 27.5428 26.8208 26.8195C27.5385 26.0961 27.991 25.3727 28.3187 24.5192C28.6411 23.6918 28.8596 22.7446 28.922 21.3603C28.9844 19.9708 29 19.5284 29 16C29 12.4716 28.9896 12.024 28.9272 10.6397ZM26.5919 21.2562C26.5347 22.526 26.3215 23.2182 26.1447 23.6709C25.9106 24.2746 25.6245 24.7118 25.1669 25.1697C24.7092 25.6277 24.2775 25.9035 23.669 26.1481C23.2113 26.3251 22.5195 26.5384 21.2557 26.5957C19.8878 26.6581 19.4769 26.6737 16.0026 26.6737C12.5283 26.6737 12.1174 26.6581 10.7496 26.5957C9.48052 26.5384 8.78878 26.3251 8.33629 26.1481C7.73297 25.9139 7.29608 25.6277 6.83839 25.1697C6.3807 24.7118 6.10504 24.2798 5.86059 23.6709C5.68376 23.213 5.47052 22.5208 5.4133 21.2562C5.35089 19.8875 5.33529 19.4764 5.33529 16C5.33529 12.5236 5.35089 12.1125 5.4133 10.7438C5.47052 9.47398 5.68376 8.78183 5.86059 8.32906C6.09464 7.72538 6.3807 7.28823 6.83839 6.83026C7.29608 6.3723 7.72777 6.09648 8.33629 5.85188C8.79398 5.67494 9.48572 5.46157 10.7496 5.40432C12.1174 5.34187 12.5283 5.32626 16.0026 5.32626C19.4769 5.32626 19.8878 5.34187 21.2557 5.40432C22.5247 5.46157 23.2165 5.67494 23.669 5.85188C24.2723 6.08607 24.7092 6.3723 25.1669 6.83026C25.6245 7.28823 25.9002 7.72018 26.1447 8.32906C26.3215 8.78703 26.5347 9.47918 26.5919 10.7438C26.6544 12.1125 26.67 12.5236 26.67 16C26.67 19.4764 26.6492 19.8875 26.5919 21.2562Z" fill="white"/>
<path d="M16.0024 9.31786C12.3096 9.31786 9.32422 12.3102 9.32422 16C9.32422 19.695 12.3148 22.6821 16.0024 22.6821C19.6899 22.6821 22.6805 19.6846 22.6805 16C22.6805 12.305 19.6951 9.31786 16.0024 9.31786ZM16.0024 20.3351C13.6099 20.3351 11.6699 18.3939 11.6699 16C11.6699 13.6061 13.6099 11.6649 16.0024 11.6649C18.3948 11.6649 20.3348 13.6061 20.3348 16C20.3348 18.3939 18.3948 20.3351 16.0024 20.3351Z" fill="white"/>
<path d="M22.9412 10.6189C23.8029 10.6189 24.5015 9.9199 24.5015 9.05765C24.5015 8.19539 23.8029 7.4964 22.9412 7.4964C22.0794 7.4964 21.3809 8.19539 21.3809 9.05765C21.3809 9.9199 22.0794 10.6189 22.9412 10.6189Z" fill="white"/>
<path d="M3 16C3 19.5336 3.0156 19.976 3.07802 21.3603C3.14043 22.7446 3.36407 23.6918 3.68134 24.5192C4.0142 25.3727 4.45629 26.1013 5.17924 26.8195C5.89698 27.5376 6.62512 27.9904 7.4781 28.3183C8.30506 28.6409 9.25165 28.8595 10.6351 28.9219C12.0238 28.9844 12.4659 29 15.9922 29C19.5237 29 19.9658 28.9844 21.3493 28.9219C22.7327 28.8595 23.6793 28.6357 24.5063 28.3183C25.3593 27.9852 26.0874 27.5428 26.8052 26.8195C27.5229 26.1013 27.9754 25.3727 28.3031 24.5192C28.6255 23.6918 28.844 22.7446 28.9064 21.3603C28.9688 19.9708 28.9844 19.5284 28.9844 16C28.9844 12.4664 28.9688 12.024 28.9064 10.6397C28.844 9.2554 28.6203 8.30825 28.3031 7.48078C27.9702 6.6273 27.5281 5.89872 26.8052 5.18054C26.0926 4.45717 25.3645 4.00961 24.5115 3.68175C23.6845 3.35909 22.7379 3.14051 21.3545 3.07806C19.9658 3.01561 19.5237 3 15.9974 3C12.4659 3 12.0238 3.01561 10.6403 3.07806C9.25685 3.14051 8.31026 3.36429 7.4833 3.68175C6.63033 4.01481 5.90218 4.45717 5.18444 5.18054C4.46669 5.90392 4.0142 6.6273 3.68654 7.48078C3.36407 8.30825 3.14043 9.2554 3.07802 10.6397C3.0156 12.024 3 12.4664 3 16ZM5.34567 16C5.34567 12.5288 5.36127 12.1125 5.42368 10.7438C5.4809 9.47398 5.69414 8.78183 5.87097 8.32906C6.10502 7.72538 6.39108 7.28823 6.84877 6.83026C7.30646 6.3723 7.73815 6.09648 8.34667 5.85188C8.80436 5.67494 9.4961 5.46157 10.76 5.40432C12.1278 5.34187 12.5387 5.32626 16.013 5.32626C19.4873 5.32626 19.8982 5.34187 21.2661 5.40432C22.5351 5.46157 23.2268 5.67494 23.6793 5.85188C24.2827 6.08607 24.7195 6.3723 25.1772 6.83026C25.6349 7.28823 25.9106 7.72018 26.155 8.32906C26.3319 8.78703 26.5451 9.47918 26.6023 10.7438C26.6647 12.1125 26.6803 12.5236 26.6803 16C26.6803 19.4764 26.6647 19.8875 26.6023 21.2562C26.5451 22.526 26.3319 23.2182 26.155 23.6709C25.921 24.2746 25.6349 24.7118 25.1772 25.1697C24.7195 25.6277 24.2879 25.9035 23.6793 26.1481C23.2216 26.3251 22.5299 26.5384 21.2661 26.5957C19.8982 26.6581 19.4873 26.6737 16.013 26.6737C12.5387 26.6737 12.1278 26.6581 10.76 26.5957C9.4909 26.5384 8.79916 26.3251 8.34667 26.1481C7.74335 25.9139 7.30646 25.6277 6.84877 25.1697C6.39108 24.7118 6.11542 24.2798 5.87097 23.6709C5.69414 23.213 5.4809 22.5208 5.42368 21.2562C5.35607 19.8875 5.34567 19.4712 5.34567 16Z" fill="white"/>
</svg>
