<svg width="20" height="21" viewBox="0 0 20 21" fill="none" xmlns="http://www.w3.org/2000/svg">
<path d="M14.541 19.4583C13.5993 19.4583 12.6077 19.2333 11.5827 18.7999C10.5827 18.3749 9.57435 17.7916 8.59102 17.0833C7.61602 16.3666 6.67435 15.5666 5.78268 14.6916C4.89935 13.7999 4.09935 12.8583 3.39102 11.8916C2.67435 10.8916 2.09935 9.89159 1.69102 8.92493C1.25768 7.8916 1.04102 6.8916 1.04102 5.94993C1.04102 5.29993 1.15768 4.68326 1.38268 4.10826C1.61602 3.5166 1.99102 2.9666 2.49935 2.4916C3.14102 1.85826 3.87435 1.5416 4.65768 1.5416C4.98268 1.5416 5.31602 1.6166 5.59935 1.74993C5.92435 1.89993 6.19935 2.12493 6.39935 2.42493L8.33268 5.14993C8.50768 5.3916 8.64101 5.62493 8.73268 5.85826C8.84101 6.10826 8.89935 6.35826 8.89935 6.59993C8.89935 6.9166 8.80768 7.22493 8.63268 7.5166C8.50768 7.7416 8.31601 7.98326 8.07435 8.22493L7.50768 8.81659C7.51602 8.84159 7.52435 8.85826 7.53268 8.87493C7.63268 9.04993 7.83268 9.34993 8.21601 9.79993C8.62435 10.2666 9.00768 10.6916 9.39102 11.0833C9.88268 11.5666 10.291 11.9499 10.6743 12.2666C11.1493 12.6666 11.4577 12.8666 11.641 12.9583L11.6243 12.9999L12.2327 12.3999C12.491 12.1416 12.741 11.9499 12.9827 11.8249C13.441 11.5416 14.0243 11.4916 14.6077 11.7333C14.8243 11.8249 15.0577 11.9499 15.3077 12.1249L18.0743 14.0916C18.3827 14.2999 18.6077 14.5666 18.741 14.8833C18.866 15.1999 18.9243 15.4916 18.9243 15.7833C18.9243 16.1833 18.8327 16.5833 18.6577 16.9583C18.4827 17.3333 18.266 17.6583 17.991 17.9583C17.516 18.4833 16.9993 18.8583 16.3993 19.0999C15.8243 19.3333 15.1993 19.4583 14.541 19.4583ZM4.65768 2.7916C4.19935 2.7916 3.77435 2.9916 3.36602 3.3916C2.98268 3.74993 2.71602 4.1416 2.54935 4.5666C2.37435 4.99993 2.29102 5.45826 2.29102 5.94993C2.29102 6.72493 2.47435 7.5666 2.84102 8.43326C3.21602 9.3166 3.74102 10.2333 4.40768 11.1499C5.07435 12.0666 5.83268 12.9583 6.66602 13.7999C7.49935 14.6249 8.39935 15.3916 9.32435 16.0666C10.2243 16.7249 11.1493 17.2583 12.066 17.6416C13.491 18.2499 14.8243 18.3916 15.9243 17.9333C16.3493 17.7583 16.7243 17.4916 17.066 17.1083C17.2577 16.8999 17.4077 16.6749 17.5327 16.4083C17.6327 16.1999 17.6827 15.9833 17.6827 15.7666C17.6827 15.6333 17.6577 15.4999 17.591 15.3499C17.566 15.2999 17.516 15.2083 17.3577 15.0999L14.591 13.1333C14.4243 13.0166 14.2743 12.9333 14.1327 12.8749C13.9493 12.7999 13.8743 12.7249 13.591 12.8999C13.4243 12.9833 13.2743 13.1083 13.1077 13.2749L12.4743 13.8999C12.1493 14.2166 11.6493 14.2916 11.266 14.1499L11.041 14.0499C10.6993 13.8666 10.2993 13.5833 9.85768 13.2083C9.45768 12.8666 9.02435 12.4666 8.49935 11.9499C8.09101 11.5333 7.68268 11.0916 7.25768 10.5999C6.86602 10.1416 6.58268 9.74993 6.40768 9.42493L6.30768 9.17493C6.25768 8.98326 6.24101 8.87493 6.24101 8.75826C6.24101 8.45826 6.34935 8.19159 6.55768 7.98326L7.18268 7.33326C7.34935 7.1666 7.47435 7.00826 7.55768 6.8666C7.62435 6.75826 7.64935 6.6666 7.64935 6.58326C7.64935 6.5166 7.62435 6.4166 7.58268 6.3166C7.52435 6.18326 7.43268 6.03326 7.31601 5.87493L5.38268 3.1416C5.29935 3.02493 5.19935 2.9416 5.07435 2.88326C4.94102 2.82493 4.79935 2.7916 4.65768 2.7916ZM11.6243 13.0083L11.491 13.5749L11.716 12.9916C11.6743 12.9833 11.641 12.9916 11.6243 13.0083Z" fill="#CBCBCB"/>
<path d="M15.4167 8.62503C15.075 8.62503 14.7917 8.34169 14.7917 8.00003C14.7917 7.70003 14.4917 7.07503 13.9917 6.54169C13.5 6.01669 12.9583 5.70836 12.5 5.70836C12.1583 5.70836 11.875 5.42503 11.875 5.08336C11.875 4.74169 12.1583 4.45836 12.5 4.45836C13.3083 4.45836 14.1583 4.89169 14.9 5.68336C15.5917 6.42503 16.0417 7.33336 16.0417 8.00003C16.0417 8.34169 15.7583 8.62503 15.4167 8.62503Z" fill="#CBCBCB"/>
<path d="M18.3333 8.62493C17.9917 8.62493 17.7083 8.3416 17.7083 7.99993C17.7083 5.12493 15.375 2.7916 12.5 2.7916C12.1583 2.7916 11.875 2.50826 11.875 2.1666C11.875 1.82493 12.1583 1.5416 12.5 1.5416C16.0583 1.5416 18.9583 4.4416 18.9583 7.99993C18.9583 8.3416 18.675 8.62493 18.3333 8.62493Z" fill="#CBCBCB"/>
</svg>
