<svg width="62" height="31" viewBox="0 0 62 31" fill="none" xmlns="http://www.w3.org/2000/svg">
<path d="M42.7832 3.44385H16.0254V23.4705H42.7832V3.44385Z" fill="#AECDFB"/>
<path d="M45.5389 26.9149H30.7346C30.3544 26.9149 30.0458 26.6069 30.0458 26.226C30.0458 25.845 30.3544 25.5371 30.7346 25.5371H44.85V1.37778H13.9588V3.8006C13.9588 4.18087 13.6502 4.48949 13.2699 4.48949C12.8897 4.48949 12.5811 4.18087 12.5811 3.8006V0.688889C12.5811 0.308622 12.8897 0 13.2699 0H45.5389C45.9198 0 46.2278 0.308622 46.2278 0.688889V26.226C46.2278 26.6063 45.9198 26.9149 45.5389 26.9149Z" fill="#0C0C0C"/>
<path d="M19.0704 26.9148H13.2699C12.8897 26.9148 12.5811 26.6069 12.5811 26.226V22.756C12.5811 22.3751 12.8897 22.0671 13.2699 22.0671C13.6502 22.0671 13.9588 22.3751 13.9588 22.756V25.5371H19.0704C19.4507 25.5371 19.7593 25.845 19.7593 26.226C19.7593 26.6069 19.4507 26.9148 19.0704 26.9148Z" fill="#0C0C0C"/>
<path d="M61.3111 26.915C60.9322 26.915 60.625 26.6098 60.6222 26.2309L60.5568 16.4921L53.4943 9.07895H46.2279V25.5372H50.1442C50.5252 25.5372 50.8331 25.8451 50.8331 26.2261C50.8331 26.607 50.5252 26.915 50.1442 26.915H45.539C45.158 26.915 44.8501 26.607 44.8501 26.2261V8.39006C44.8501 8.00979 45.158 7.70117 45.539 7.70117H53.7898C53.9779 7.70117 54.1584 7.77833 54.2886 7.91473L61.7423 15.7391C61.8636 15.8666 61.9311 16.0347 61.9325 16.2096L62 26.2213C62.0027 26.6022 61.6962 26.9122 61.3159 26.915C61.3145 26.915 61.3125 26.915 61.3111 26.915Z" fill="#0C0C0C"/>
<path d="M55.7254 16.9027H49.894C49.513 16.9027 49.2051 16.5947 49.2051 16.2138V8.39006C49.2051 8.00979 49.513 7.70117 49.894 7.70117C50.2749 7.70117 50.5829 8.00979 50.5829 8.39006V15.5256H55.7254C56.1064 15.5256 56.4143 15.8342 56.4143 16.2145C56.4143 16.5947 56.1057 16.9027 55.7254 16.9027Z" fill="#0C0C0C"/>
<path d="M22.7163 30.5597C20.3266 30.5597 18.3818 28.6156 18.3818 26.2259C18.3818 23.8361 20.3259 21.8921 22.7163 21.8921C25.1061 21.8921 27.0501 23.8361 27.0501 26.2259C27.0501 28.6156 25.1054 30.5597 22.7163 30.5597ZM22.7163 23.2699C21.0864 23.2699 19.7596 24.596 19.7596 26.2259C19.7596 27.8558 21.0857 29.1819 22.7163 29.1819C24.3469 29.1819 25.6723 27.8558 25.6723 26.2259C25.6723 24.596 24.3462 23.2699 22.7163 23.2699Z" fill="#0C0C0C"/>
<path d="M53.7896 30.5597C51.3991 30.5597 49.4551 28.6156 49.4551 26.2259C49.4551 23.8361 51.3991 21.8921 53.7896 21.8921C56.1793 21.8921 58.1234 23.8361 58.1234 26.2259C58.1234 28.6156 56.1793 30.5597 53.7896 30.5597ZM53.7896 23.2699C52.1597 23.2699 50.8329 24.596 50.8329 26.2259C50.8329 27.8558 52.1597 29.1819 53.7896 29.1819C55.4195 29.1819 56.7456 27.8558 56.7456 26.2259C56.7456 24.596 55.4195 23.2699 53.7896 23.2699Z" fill="#0C0C0C"/>
<path d="M29.4045 14.1456H0.688889C0.308622 14.1456 0 13.837 0 13.4567C0 13.0764 0.308622 12.7678 0.688889 12.7678H29.4045C29.7848 12.7678 30.0934 13.0764 30.0934 13.4567C30.0934 13.837 29.7848 14.1456 29.4045 14.1456Z" fill="#0C0C0C"/>
<path d="M29.4045 8.31357H7.97942C7.59915 8.31357 7.29053 8.00495 7.29053 7.62468C7.29053 7.24441 7.59915 6.93579 7.97942 6.93579H29.4052C29.7855 6.93579 30.0941 7.24441 30.0941 7.62468C30.0941 8.00495 29.7848 8.31357 29.4045 8.31357Z" fill="#0C0C0C"/>
<path d="M29.4045 19.9779H7.97942C7.59915 19.9779 7.29053 19.6699 7.29053 19.289C7.29053 18.908 7.59915 18.6001 7.97942 18.6001H29.4052C29.7855 18.6001 30.0941 18.908 30.0941 19.289C30.0941 19.6699 29.7848 19.9779 29.4045 19.9779Z" fill="#0C0C0C"/>
</svg>
