<svg width="20" height="20" viewBox="0 0 20 20" fill="none" xmlns="http://www.w3.org/2000/svg">
<path d="M8.99212 12.6416C8.82546 12.6416 8.66712 12.5749 8.55046 12.4582L6.53379 10.4416C6.29212 10.1999 6.29212 9.7999 6.53379 9.55824C6.77546 9.31657 7.17546 9.31657 7.41712 9.55824L8.99212 11.1332L12.5755 7.5499C12.8171 7.30824 13.2171 7.30824 13.4588 7.5499C13.7005 7.79157 13.7005 8.19157 13.4588 8.43324L9.43379 12.4582C9.31712 12.5749 9.15879 12.6416 8.99212 12.6416Z" fill="#717171"/>
<path d="M10.0001 18.9584C9.47506 18.9584 8.95006 18.7834 8.54173 18.4334L7.22506 17.3001C7.09173 17.1834 6.7584 17.0667 6.5834 17.0667H5.15006C3.91673 17.0667 2.91673 16.0667 2.91673 14.8334V13.4084C2.91673 13.2334 2.80007 12.9084 2.6834 12.7751L1.5584 11.4501C0.875065 10.6417 0.875065 9.36675 1.5584 8.55842L2.6834 7.23342C2.80007 7.10008 2.91673 6.77508 2.91673 6.60008V5.16675C2.91673 3.93341 3.91673 2.93341 5.15006 2.93341H6.59173C6.76673 2.93341 7.10007 2.80841 7.2334 2.70008L8.55007 1.56675C9.36673 0.866748 10.6417 0.866748 11.4584 1.56675L12.7751 2.70008C12.9084 2.81675 13.2417 2.93341 13.4167 2.93341H14.8334C16.0667 2.93341 17.0667 3.93341 17.0667 5.16675V6.58342C17.0667 6.75842 17.1917 7.09175 17.3084 7.22508L18.4417 8.54175C19.1417 9.35842 19.1417 10.6334 18.4417 11.4501L17.3084 12.7667C17.1917 12.9001 17.0667 13.2334 17.0667 13.4084V14.8251C17.0667 16.0584 16.0667 17.0584 14.8334 17.0584H13.4167C13.2417 17.0584 12.9084 17.1834 12.7751 17.2917L11.4584 18.4251C11.0501 18.7834 10.5251 18.9584 10.0001 18.9584ZM5.15006 4.18341C4.6084 4.18341 4.16673 4.62508 4.16673 5.16675V6.59175C4.16673 7.06675 3.94173 7.67508 3.6334 8.03342L2.5084 9.35841C2.21673 9.70008 2.21673 10.2917 2.5084 10.6334L3.6334 11.9584C3.94173 12.3251 4.16673 12.9251 4.16673 13.4001V14.8251C4.16673 15.3667 4.6084 15.8084 5.15006 15.8084H6.59173C7.07506 15.8084 7.6834 16.0334 8.05006 16.3501L9.36673 17.4834C9.7084 17.7751 10.3084 17.7751 10.6501 17.4834L11.9667 16.3501C12.3334 16.0417 12.9417 15.8084 13.4251 15.8084H14.8417C15.3834 15.8084 15.8251 15.3667 15.8251 14.8251V13.4084C15.8251 12.9251 16.0501 12.3167 16.3667 11.9501L17.5001 10.6334C17.7917 10.2917 17.7917 9.69175 17.5001 9.35008L16.3667 8.03342C16.0501 7.66675 15.8251 7.05841 15.8251 6.57508V5.16675C15.8251 4.62508 15.3834 4.18341 14.8417 4.18341H13.4251C12.9417 4.18341 12.3334 3.95841 11.9667 3.64175L10.6501 2.50841C10.3084 2.21675 9.7084 2.21675 9.36673 2.50841L8.05006 3.65008C7.6834 3.95841 7.06673 4.18341 6.59173 4.18341H5.15006Z" fill="#717171"/>
</svg>
