<svg width="20" height="20" viewBox="0 0 20 20" fill="none" xmlns="http://www.w3.org/2000/svg">
<path d="M10.0004 11.8083C8.22539 11.8083 6.77539 10.3666 6.77539 8.58327C6.77539 6.79994 8.22539 5.36661 10.0004 5.36661C11.7754 5.36661 13.2254 6.80827 13.2254 8.59161C13.2254 10.3749 11.7754 11.8083 10.0004 11.8083ZM10.0004 6.61661C8.91706 6.61661 8.02539 7.49994 8.02539 8.59161C8.02539 9.68327 8.90872 10.5666 10.0004 10.5666C11.0921 10.5666 11.9754 9.68327 11.9754 8.59161C11.9754 7.49994 11.0837 6.61661 10.0004 6.61661Z" fill="#CBCBCB"/>
<path d="M9.99941 18.9666C8.76608 18.9666 7.52441 18.4999 6.55775 17.5749C4.09941 15.2083 1.38275 11.4333 2.40775 6.9416C3.33275 2.8666 6.89108 1.0416 9.99941 1.0416C9.99941 1.0416 9.99942 1.0416 10.0077 1.0416C13.1161 1.0416 16.6744 2.8666 17.5994 6.94993C18.6161 11.4416 15.8994 15.2083 13.4411 17.5749C12.4744 18.4999 11.2327 18.9666 9.99941 18.9666ZM9.99941 2.2916C7.57441 2.2916 4.45775 3.58326 3.63275 7.2166C2.73275 11.1416 5.19941 14.5249 7.43275 16.6666C8.87441 18.0583 11.1327 18.0583 12.5744 16.6666C14.7994 14.5249 17.2661 11.1416 16.3827 7.2166C15.5494 3.58326 12.4244 2.2916 9.99941 2.2916Z" fill="#CBCBCB"/>
</svg>
