<svg width="40" height="46" viewBox="0 0 40 46" fill="none" xmlns="http://www.w3.org/2000/svg">
<path d="M20 35.7168C25.9115 35.7168 30.7036 30.9246 30.7036 25.0132C30.7036 19.1017 25.9115 14.3096 20 14.3096C14.0886 14.3096 9.29639 19.1017 9.29639 25.0132C9.29639 30.9246 14.0886 35.7168 20 35.7168Z" fill="#AECDFB"/>
<path d="M20.0002 39.2811C16.6589 39.2811 13.4102 38.102 10.8524 35.9598C10.6407 35.7828 10.6127 35.4671 10.7898 35.2555C10.9669 35.0429 11.2821 35.0148 11.4947 35.1929C13.8729 37.1835 16.8935 38.2806 20.0002 38.2806C27.31 38.2806 33.2571 32.3334 33.2571 25.0236C33.2571 17.7138 27.31 11.7666 20.0002 11.7666C12.8574 11.7666 7.01584 17.4441 6.75271 24.5233H8.92535C9.20149 24.5233 9.42561 24.747 9.42561 25.0236C9.42561 25.3002 9.20149 25.5239 8.92535 25.5239H6.24294C5.96679 25.5239 5.74268 25.3002 5.74268 25.0236C5.74268 17.162 12.1385 10.7661 20.0002 10.7661C27.8618 10.7661 34.2577 17.162 34.2577 25.0236C34.2577 32.8852 27.8618 39.2811 20.0002 39.2811Z" fill="#0C0C0C"/>
<path d="M20 45.0236C8.97221 45.0236 0 36.0514 0 25.0236C0 15.3866 6.78656 7.19728 16.1985 5.38983V3.98009H14.0239C13.7477 3.98009 13.5236 3.75597 13.5236 3.47983C13.5236 1.56082 15.0844 0 17.0034 0H22.9966C24.9156 0 26.4764 1.56082 26.4764 3.47983C26.4764 3.75597 26.2528 3.98009 25.9761 3.98009H23.801V5.38983C33.2139 7.19678 40 15.3851 40 25.0236C40 36.0514 31.0283 45.0236 20 45.0236ZM17.199 5.74902C17.1995 5.75402 17.2 5.75952 17.2005 5.76403C17.2225 6.02316 17.0455 6.25578 16.7893 6.29931C7.64051 7.85712 1.00053 15.7318 1.00053 25.0236C1.00053 35.5001 9.5235 44.0231 20 44.0231C30.4765 44.0231 38.9995 35.5001 38.9995 25.0236C38.9995 15.7298 32.3575 7.85512 23.2057 6.29881C22.9496 6.25528 22.7695 6.02266 22.7915 5.76353C22.793 5.74201 22.7965 5.7205 22.801 5.69999V3.47983C22.801 3.20368 23.0246 2.97956 23.3012 2.97956H25.4254C25.1932 1.85147 24.1927 1.00053 22.9966 1.00053H17.0034C15.8078 1.00053 14.8068 1.85147 14.5752 2.97956H16.6993C16.9754 2.97956 17.1995 3.20368 17.1995 3.47983V5.74902H17.199Z" fill="#0C0C0C"/>
<path d="M18.8812 30.9897H12.2738C12.0767 30.9897 11.8981 30.8741 11.8175 30.694C11.7365 30.5144 11.769 30.3043 11.9001 30.1572L17.7006 23.6343C18.6876 22.5247 18.5876 20.8193 17.478 19.8323C16.3679 18.8458 14.663 18.9454 13.6755 20.0549C13.4924 20.2611 13.1757 20.2801 12.9691 20.0965C12.7625 19.9129 12.744 19.5967 12.9276 19.3901C14.2808 17.8683 16.62 17.7312 18.1423 19.0849C19.6641 20.4386 19.8012 22.7779 18.4475 24.2997L13.3878 29.9892H18.8812C19.1574 29.9892 19.3815 30.2128 19.3815 30.4894C19.3815 30.7661 19.1574 30.9897 18.8812 30.9897Z" fill="#0C0C0C"/>
<path d="M25.9342 30.9898C25.6576 30.9898 25.434 30.7662 25.434 30.4895V28.5H20.1572C19.9756 28.5 19.8085 28.402 19.72 28.2434C19.6319 28.0848 19.6359 27.8912 19.7315 27.7366L25.5085 18.3882C25.6256 18.1981 25.8547 18.108 26.0708 18.1701C26.2859 18.2311 26.4345 18.4277 26.4345 18.6513V27.4995H28.1694C28.446 27.4995 28.6697 27.7231 28.6697 27.9997C28.6697 28.2764 28.446 28.5 28.1694 28.5H26.4345V30.49C26.4345 30.7662 26.2109 30.9898 25.9342 30.9898ZM21.0542 27.4995H25.434V20.4128L21.0542 27.4995Z" fill="#0C0C0C"/>
<path d="M31.5387 25.524H31.075C30.7983 25.524 30.5747 25.3003 30.5747 25.0237C30.5747 24.7471 30.7983 24.5234 31.075 24.5234H31.5387C31.8154 24.5234 32.039 24.7471 32.039 25.0237C32.039 25.3003 31.8154 25.524 31.5387 25.524Z" fill="#0C0C0C"/>
<path d="M19.9998 14.4486C19.7236 14.4486 19.4995 14.2245 19.4995 13.9484V13.4846C19.4995 13.2085 19.7236 12.9844 19.9998 12.9844C20.2759 12.9844 20.5 13.2085 20.5 13.4846V13.9484C20.5 14.225 20.2759 14.4486 19.9998 14.4486Z" fill="#0C0C0C"/>
<path d="M19.9998 37.0624C19.7236 37.0624 19.4995 36.8388 19.4995 36.5622V36.0984C19.4995 35.8218 19.7236 35.5981 19.9998 35.5981C20.2759 35.5981 20.5 35.8218 20.5 36.0984V36.5622C20.5 36.8388 20.2759 37.0624 19.9998 37.0624Z" fill="#0C0C0C"/>
</svg>
