<svg width="40" height="44" viewBox="0 0 40 44" fill="none" xmlns="http://www.w3.org/2000/svg">
<path d="M19.9997 29.2147C24.1006 29.2147 27.4251 25.8902 27.4251 21.7892C27.4251 17.6883 24.1006 14.3638 19.9997 14.3638C15.8987 14.3638 12.5742 17.6883 12.5742 21.7892C12.5742 25.8902 15.8987 29.2147 19.9997 29.2147Z" fill="#AECDFB"/>
<path d="M19.9997 43.7703C19.9438 43.7703 19.8874 43.7606 19.832 43.7402C7.7712 39.3101 1.09957 28.0776 0.000929807 10.3548C-0.0136604 10.118 0.144887 9.90498 0.375899 9.851C5.88954 8.569 10.7714 6.5575 14.8849 3.87192C15.1101 3.72505 15.4111 3.78827 15.558 4.01345C15.7049 4.23862 15.6416 4.54015 15.4165 4.68654C11.3079 7.36871 6.45856 9.39238 0.997928 10.7036C2.15736 28.0056 8.43019 38.5164 20.167 42.8278C20.4195 42.9202 20.5483 43.1999 20.4559 43.4518C20.384 43.6483 20.1977 43.7703 19.9997 43.7703Z" fill="#0C0C0C"/>
<path d="M20 43.7703C19.9018 43.7703 19.8045 43.7402 19.7218 43.6828C19.5915 43.5919 19.5137 43.443 19.5137 43.284V31.5272C19.5137 31.2583 19.7316 31.0409 20 31.0409C20.2685 31.0409 20.4864 31.2583 20.4864 31.5272V42.5788C31.802 38.12 37.8638 27.6807 39.0013 10.7036C31.5739 8.92063 25.3532 5.85571 20.4864 1.5832V8.24947C20.4864 8.51793 20.2685 8.73582 20 8.73582C19.7316 8.73582 19.5137 8.51793 19.5137 8.24947V0.486018C19.5137 0.292455 19.6284 0.116886 19.8064 0.0400437C19.9845 -0.0367982 20.1911 -0.00129529 20.3322 0.131476C25.271 4.75317 31.7612 8.02381 39.6239 9.85148C39.8554 9.90547 40.0139 10.1185 39.9988 10.3553C38.9002 28.0776 32.2286 39.3106 20.1678 43.7402C20.1133 43.7601 20.0564 43.7703 20 43.7703Z" fill="#0C0C0C"/>
<path d="M19.9996 32.0135C17.6223 32.0135 15.3112 31.1741 13.4909 29.6509C13.2851 29.4787 13.2579 29.1718 13.4301 28.9661C13.6022 28.7599 13.9086 28.7322 14.1153 28.9053C15.7606 30.2826 17.8504 31.0413 19.9996 31.0413C25.0565 31.0413 29.1705 26.9274 29.1705 21.8704C29.1705 16.8134 25.0565 12.6985 19.9996 12.6985C14.9426 12.6985 10.8282 16.8125 10.8282 21.8699C10.8282 22.1384 10.6103 22.3563 10.3418 22.3563C10.0733 22.3563 9.85547 22.1384 9.85547 21.8699C9.85547 16.2765 14.4062 11.7258 19.9996 11.7258C25.593 11.7258 30.1432 16.2765 30.1432 21.8699C30.1432 27.4633 25.593 32.0135 19.9996 32.0135Z" fill="#0C0C0C"/>
<path d="M19.3773 25.6153C19.2377 25.6153 19.1045 25.555 19.0125 25.4504L15.8504 21.8568C15.6728 21.655 15.6923 21.3481 15.8941 21.1706C16.096 20.9926 16.4033 21.013 16.5804 21.2144L19.3749 24.3892L24.7061 18.2287C24.8812 18.0254 25.1891 18.004 25.3919 18.1791C25.5952 18.3552 25.6171 18.6621 25.4415 18.8654L19.745 25.447C19.6531 25.5535 19.5198 25.6148 19.3792 25.6153C19.3788 25.6153 19.3778 25.6153 19.3773 25.6153Z" fill="#0C0C0C"/>
</svg>
