<svg width="48" height="48" viewBox="0 0 48 48" fill="none" xmlns="http://www.w3.org/2000/svg">
<rect width="48" height="48" rx="24" fill="#78ABF9"/>
<path d="M24.0007 32.6667C20.8807 32.6667 18.334 30.12 18.334 27C18.334 26.4533 18.7873 26 19.334 26C19.8807 26 20.334 26.4533 20.334 27C20.334 29.0267 21.974 30.6667 24.0007 30.6667C26.0273 30.6667 27.6673 29.0267 27.6673 27C27.6673 26.4533 28.1207 26 28.6673 26C29.214 26 29.6673 26.4533 29.6673 27C29.6673 30.12 27.1207 32.6667 24.0007 32.6667Z" fill="white"/>
<path d="M14.9205 16.5066C14.6672 16.5066 14.4005 16.3999 14.2138 16.2133C13.8272 15.8266 13.8272 15.1866 14.2138 14.7999L19.0538 9.95992C19.4405 9.57326 20.0805 9.57326 20.4672 9.95992C20.8538 10.3466 20.8538 10.9866 20.4672 11.3733L15.6272 16.2133C15.4272 16.3999 15.1738 16.5066 14.9205 16.5066Z" fill="white"/>
<path d="M33.0808 16.5066C32.8275 16.5066 32.5741 16.4133 32.3741 16.2133L27.5341 11.3733C27.1475 10.9866 27.1475 10.3466 27.5341 9.95992C27.9208 9.57326 28.5608 9.57326 28.9475 9.95992L33.7875 14.7999C34.1741 15.1866 34.1741 15.8266 33.7875 16.2133C33.6008 16.3999 33.3341 16.5066 33.0808 16.5066Z" fill="white"/>
<path d="M34.946 22.1334C34.8527 22.1334 34.7593 22.1334 34.666 22.1334H34.3594H13.3327C12.3993 22.1467 11.3327 22.1467 10.5593 21.3734C9.94602 20.7734 9.66602 19.84 9.66602 18.4667C9.66602 14.8 12.346 14.8 13.626 14.8H34.3727C35.6527 14.8 38.3327 14.8 38.3327 18.4667C38.3327 19.8534 38.0527 20.7734 37.4393 21.3734C36.746 22.0667 35.8127 22.1334 34.946 22.1334ZM13.626 20.1334H34.6794C35.2794 20.1467 35.8394 20.1467 36.026 19.96C36.1194 19.8667 36.3193 19.5467 36.3193 18.4667C36.3193 16.96 35.946 16.8 34.3594 16.8H13.626C12.0393 16.8 11.666 16.96 11.666 18.4667C11.666 19.5467 11.8793 19.8667 11.9593 19.96C12.146 20.1334 12.7193 20.1334 13.306 20.1334H13.626Z" fill="white"/>
<path d="M27.8537 38.3332H19.8137C15.0403 38.3332 13.9737 35.4933 13.5603 33.0266L11.6803 21.4932C11.587 20.9466 11.9603 20.4399 12.507 20.3466C13.0403 20.2533 13.5603 20.6266 13.6537 21.1733L15.5337 32.6933C15.9203 35.0533 16.7203 36.3332 19.8137 36.3332H27.8537C31.2803 36.3332 31.667 35.1333 32.107 32.8133L34.347 21.1466C34.4537 20.5999 34.9737 20.2399 35.5203 20.3599C36.067 20.4666 36.4137 20.9866 36.307 21.5332L34.067 33.1999C33.547 35.9066 32.6803 38.3332 27.8537 38.3332Z" fill="white"/>
</svg>
