<svg width="28" height="28" viewBox="0 0 28 28" fill="none" xmlns="http://www.w3.org/2000/svg">
<path d="M13.9993 0.666748C6.65268 0.666748 0.666016 6.65341 0.666016 14.0001C0.666016 21.3467 6.65268 27.3334 13.9993 27.3334C21.346 27.3334 27.3327 21.3467 27.3327 14.0001C27.3327 6.65341 21.346 0.666748 13.9993 0.666748ZM17.7193 14.7067L13.0127 19.4134C12.8127 19.6134 12.5593 19.7067 12.306 19.7067C12.0527 19.7067 11.7993 19.6134 11.5993 19.4134C11.2127 19.0267 11.2127 18.3867 11.5993 18.0001L15.5993 14.0001L11.5993 10.0001C11.2127 9.61341 11.2127 8.97342 11.5993 8.58675C11.986 8.20008 12.626 8.20008 13.0127 8.58675L17.7193 13.2934C18.1193 13.6801 18.1193 14.3201 17.7193 14.7067Z" fill="#F6F6F6"/>
</svg>
