<svg width="48" height="48" viewBox="0 0 48 48" fill="none" xmlns="http://www.w3.org/2000/svg">
<rect width="48" height="48" rx="24" fill="#9E9E9E"/>
<path d="M37.3327 20.3333H10.666C10.1193 20.3333 9.66602 19.8799 9.66602 19.3333C9.66602 18.7866 10.1193 18.3333 10.666 18.3333H37.3327C37.8793 18.3333 38.3327 18.7866 38.3327 19.3333C38.3327 19.8799 37.8793 20.3333 37.3327 20.3333Z" fill="white"/>
<path d="M18.6667 31H16C15.4533 31 15 30.5467 15 30C15 29.4533 15.4533 29 16 29H18.6667C19.2133 29 19.6667 29.4533 19.6667 30C19.6667 30.5467 19.2133 31 18.6667 31Z" fill="white"/>
<path d="M27.3333 31H22C21.4533 31 21 30.5467 21 30C21 29.4533 21.4533 29 22 29H27.3333C27.88 29 28.3333 29.4533 28.3333 30C28.3333 30.5467 27.88 31 27.3333 31Z" fill="white"/>
<path d="M31.4127 36.3334H16.586C11.2793 36.3334 9.66602 34.7334 9.66602 29.4801V18.5201C9.66602 13.2667 11.2793 11.6667 16.586 11.6667H31.3993C36.706 11.6667 38.3193 13.2667 38.3193 18.5201V29.4667C38.3327 34.7334 36.7193 36.3334 31.4127 36.3334ZM16.586 13.6667C12.3993 13.6667 11.666 14.3867 11.666 18.5201V29.4667C11.666 33.6001 12.3993 34.3201 16.586 34.3201H31.3993C35.586 34.3201 36.3193 33.6001 36.3193 29.4667V18.5201C36.3193 14.3867 35.586 13.6667 31.3993 13.6667H16.586Z" fill="white"/>
</svg>
