<svg width="28" height="28" viewBox="0 0 28 28" fill="none" xmlns="http://www.w3.org/2000/svg">
<path d="M13.9993 0.666748C6.65268 0.666748 0.666016 6.65341 0.666016 14.0001C0.666016 21.3467 6.65268 27.3334 13.9993 27.3334C21.346 27.3334 27.3327 21.3467 27.3327 14.0001C27.3327 6.65341 21.346 0.666748 13.9993 0.666748ZM16.386 18.0001C16.7727 18.3867 16.7727 19.0267 16.386 19.4134C16.186 19.6134 15.9327 19.7067 15.6793 19.7067C15.426 19.7067 15.1727 19.6134 14.9727 19.4134L10.266 14.7067C9.87935 14.3201 9.87935 13.6801 10.266 13.2934L14.9727 8.58675C15.3593 8.20008 15.9993 8.20008 16.386 8.58675C16.7727 8.97342 16.7727 9.61341 16.386 10.0001L12.386 14.0001L16.386 18.0001Z" fill="#F6F6F6"/>
</svg>
