<svg width="20" height="20" viewBox="0 0 20 20" fill="none" xmlns="http://www.w3.org/2000/svg">
<path d="M12.2505 18.9584H7.75046C3.63379 18.9584 1.88379 17.2001 1.88379 13.0918V9.3501C1.88379 9.00843 2.16712 8.7251 2.50879 8.7251C2.85046 8.7251 3.13379 9.00843 3.13379 9.3501V13.0918C3.13379 16.5001 4.34212 17.7084 7.75046 17.7084H12.2421C15.6505 17.7084 16.8588 16.5001 16.8588 13.0918V9.3501C16.8588 9.00843 17.1421 8.7251 17.4838 8.7251C17.8255 8.7251 18.1088 9.00843 18.1088 9.3501V13.0918C18.1171 17.2001 16.3588 18.9584 12.2505 18.9584Z" fill="#717171"/>
<path d="M10.0002 10.6251C9.0835 10.6251 8.25016 10.2667 7.6585 9.60841C7.06683 8.95008 6.79183 8.09175 6.8835 7.17508L7.44183 1.60841C7.47516 1.29175 7.74183 1.04175 8.06683 1.04175H11.9585C12.2835 1.04175 12.5502 1.28341 12.5835 1.60841L13.1418 7.17508C13.2335 8.09175 12.9585 8.95008 12.3668 9.60841C11.7502 10.2667 10.9168 10.6251 10.0002 10.6251ZM8.62516 2.29175L8.12516 7.30008C8.06683 7.85841 8.2335 8.38341 8.5835 8.76675C9.29183 9.55008 10.7085 9.55008 11.4168 8.76675C11.7668 8.37508 11.9335 7.85008 11.8752 7.30008L11.3752 2.29175H8.62516Z" fill="#717171"/>
<path d="M15.258 10.6251C13.5663 10.6251 12.058 9.25841 11.883 7.57508L11.2997 1.73341C11.283 1.55841 11.3413 1.38341 11.458 1.25008C11.5747 1.11675 11.7413 1.04175 11.9247 1.04175H14.4663C16.9163 1.04175 18.058 2.06675 18.3997 4.58341L18.633 6.90008C18.733 7.88341 18.433 8.81675 17.7913 9.52508C17.1497 10.2334 16.2497 10.6251 15.258 10.6251ZM12.6163 2.29175L13.133 7.45008C13.2413 8.49175 14.208 9.37508 15.258 9.37508C15.8913 9.37508 16.458 9.13341 16.8663 8.69175C17.2663 8.25008 17.4497 7.65841 17.3913 7.02508L17.158 4.73341C16.8997 2.85008 16.2913 2.29175 14.4663 2.29175H12.6163V2.29175Z" fill="#717171"/>
<path d="M4.69953 10.6251C3.70786 10.6251 2.80786 10.2334 2.1662 9.52508C1.52453 8.81675 1.22453 7.88341 1.32453 6.90008L1.54953 4.60841C1.89953 2.06675 3.0412 1.04175 5.4912 1.04175H8.03286C8.20786 1.04175 8.37453 1.11675 8.49953 1.25008C8.62453 1.38341 8.67453 1.55841 8.65786 1.73341L8.07453 7.57508C7.89953 9.25841 6.3912 10.6251 4.69953 10.6251ZM5.4912 2.29175C3.6662 2.29175 3.05786 2.84175 2.7912 4.75008L2.5662 7.02508C2.49953 7.65841 2.6912 8.25008 3.0912 8.69175C3.4912 9.13341 4.05786 9.37508 4.69953 9.37508C5.74953 9.37508 6.72453 8.49175 6.82453 7.45008L7.3412 2.29175H5.4912V2.29175Z" fill="#717171"/>
<path d="M12.0837 18.9584H7.91699C7.57533 18.9584 7.29199 18.6751 7.29199 18.3334V16.2501C7.29199 14.5001 8.25033 13.5417 10.0003 13.5417C11.7503 13.5417 12.7087 14.5001 12.7087 16.2501V18.3334C12.7087 18.6751 12.4253 18.9584 12.0837 18.9584ZM8.54199 17.7084H11.4587V16.2501C11.4587 15.2001 11.0503 14.7917 10.0003 14.7917C8.95033 14.7917 8.54199 15.2001 8.54199 16.2501V17.7084Z" fill="#717171"/>
</svg>
