<svg width="16" height="15" viewBox="0 0 16 15" fill="none" xmlns="http://www.w3.org/2000/svg">
<path d="M7.52447 0.963526C7.67415 0.502871 8.32585 0.50287 8.47553 0.963525L9.90837 5.37336C9.97531 5.57937 10.1673 5.71885 10.3839 5.71885H15.0207C15.505 5.71885 15.7064 6.33865 15.3146 6.62336L11.5633 9.34878C11.3881 9.4761 11.3148 9.70179 11.3817 9.9078L12.8145 14.3176C12.9642 14.7783 12.437 15.1613 12.0451 14.8766L8.29389 12.1512C8.11865 12.0239 7.88135 12.0239 7.70611 12.1512L3.95488 14.8766C3.56303 15.1613 3.03578 14.7783 3.18546 14.3176L4.6183 9.9078C4.68524 9.70179 4.61191 9.4761 4.43667 9.34878L0.685441 6.62336C0.293584 6.33866 0.494972 5.71885 0.979333 5.71885H5.6161C5.83272 5.71885 6.02469 5.57937 6.09163 5.37336L7.52447 0.963526Z" fill="white"/>
</svg>
